<svg xmlns="http://www.w3.org/2000/svg" width="117.174" height="24.543" viewBox="0 0 117.174 24.543">
  <g id="Logo" transform="translate(97.301 20)">
    <g id="Group_19" data-name="Group 19" transform="translate(-97.301 -20)">
      <path id="Path_46" data-name="Path 46" d="M132.815,25.759l2.24,1.522a5.8,5.8,0,1,0,0-9.578l-13.429,9.578a5.8,5.8,0,1,1,0-9.578l1.858,1.292" transform="translate(-44.78 -6.616)" fill="none" stroke="#3b3cea" stroke-linecap="round" stroke-linejoin="round" stroke-width="2"/>
      <path id="Path_47" data-name="Path 47" d="M130.145,14.382v4.587l-3.559.825m11.122,9.472V24.679l3.56-.825" transform="translate(-50.367 -5.722)" fill="none" stroke="#3b3cea" stroke-linecap="round" stroke-linejoin="round" stroke-width="2"/>
      <path id="Path_48" data-name="Path 48" d="M5.577,24.8a13.846,13.846,0,0,0,3.014-.318,7.6,7.6,0,0,0,2.524-1.033,5.284,5.284,0,0,0,1.74-1.855,5.584,5.584,0,0,0,.644-2.786,4.929,4.929,0,0,0-.473-2.2,6.418,6.418,0,0,0-1.282-1.754,10.342,10.342,0,0,0-1.879-1.444q-1.106-.67-2.268-1.242T5.538,11.11a9.293,9.293,0,0,1-1.514-.993,3.608,3.608,0,0,1-.939-1.133,3.193,3.193,0,0,1-.319-1.475,2.756,2.756,0,0,1,.42-1.552A3.371,3.371,0,0,1,4.272,4.918a4.833,4.833,0,0,1,1.522-.582A8.354,8.354,0,0,1,7.5,4.158a8.706,8.706,0,0,1,5.064,1.366V2.589a10.874,10.874,0,0,0-4.8-.791,11.333,11.333,0,0,0-2.835.357A7.956,7.956,0,0,0,2.454,3.241,5.723,5.723,0,0,0,.7,5.1,5.087,5.087,0,0,0,.031,7.743,5.11,5.11,0,0,0,.458,9.907a5.564,5.564,0,0,0,1.173,1.653A9.468,9.468,0,0,0,3.386,12.9q1.066.636,2.175,1.2T7.62,15.154a10.913,10.913,0,0,1,1.654,1.056,4.476,4.476,0,0,1,1.1,1.219,3.016,3.016,0,0,1,.4,1.567,3.017,3.017,0,0,1-1.189,2.569,5.961,5.961,0,0,1-3.6.893,9.194,9.194,0,0,1-1.523-.14,12.343,12.343,0,0,1-1.638-.4,10.24,10.24,0,0,1-1.553-.629A5.958,5.958,0,0,1,0,20.454v3.073a4.768,4.768,0,0,0,1.157.536,12.945,12.945,0,0,0,1.53.4q.808.163,1.585.248A12.216,12.216,0,0,0,5.577,24.8Z" transform="translate(0 -0.715)" fill="#"/>
      <path id="Path_49" data-name="Path 49" d="M32.284,21.189l6.979,7.54h3.551l-7.905-8.123,7.334-7.572H38.923l-6.639,7.188Zm87.205,0,6.979,7.541h3.551l-7.905-8.123,7.334-7.572h-3.319l-6.639,7.189Z" transform="translate(-12.845 -5.186)" fill="#3b3cea"/>
      <path id="Path_50" data-name="Path 50" d="M29.334,23.814V0H26.9V23.814Zm86.935,0V0h-2.43V23.814Z" transform="translate(-10.705)" fill="#"/>
      <path id="Path_51" data-name="Path 51" d="M52.407,3.968a1.716,1.716,0,0,0,1.254-.512,1.68,1.68,0,0,0,.517-1.239A1.69,1.69,0,0,0,53.661.953a1.729,1.729,0,0,0-1.254-.5,1.685,1.685,0,0,0-1.23.5,1.706,1.706,0,0,0-.509,1.264,1.678,1.678,0,0,0,.509,1.255,1.7,1.7,0,0,0,1.23.5Z" transform="translate(-20.16 -0.179)" fill="#3b3cea"/>
      <path id="Path_52" data-name="Path 52" d="M53.995,23.543V7.848h-2.43V23.543Zm5.94.27V0H57.5V23.814Zm5.94,0V0h-2.43V23.814ZM76.4,1.353l.326,0a9.432,9.432,0,0,1,2.407.364,6.122,6.122,0,0,1,2.175,1.12,5.2,5.2,0,0,1,1.441,1.871,6.172,6.172,0,0,1,.52,2.623,6.277,6.277,0,0,1-.355,2.154,5.616,5.616,0,0,1-1.009,1.746,6.109,6.109,0,0,1-1.576,1.308,8.087,8.087,0,0,1-2.072.838v.063l.185.085a4.548,4.548,0,0,1,.8.486,5.4,5.4,0,0,1,.8.76,10.029,10.029,0,0,1,.748.995q.37.555.827,1.292l4.239,6.751H82.7l-3.782-6.3-.148-.245a12.855,12.855,0,0,0-.86-1.251,5.725,5.725,0,0,0-1-1.01,3.477,3.477,0,0,0-1.1-.572,4.568,4.568,0,0,0-1.331-.18H72.3v9.555H69.654V1.353H76.4Zm-.473,2.381H72.3v8.145h3.593a5.475,5.475,0,0,0,1.836-.3,4.252,4.252,0,0,0,1.457-.854,3.869,3.869,0,0,0,.961-1.363A4.537,4.537,0,0,0,80.5,7.556a3.511,3.511,0,0,0-1.174-2.812,5.066,5.066,0,0,0-3.4-1.01Z" transform="translate(-20.517)" fill="#"/>
    </g>
  </g>
</svg>